# xmcd CD database file
#
# Track frame offsets:
#	150
#	18936
#	41298
#	60298
#	72758
#	90905
#	114476
#	131228
#	147614
#	155825
#	178541
#	194159
#
# Disc length: 2905 seconds
#
# Revision: 2
# Processed by: cddbd v1.5.2PL0 Copyright (c) Steve Scherf et al.
# Submitted via: CDex 1.70beta3
#
DISCID=a50b570c
DTITLE=茶太 - murmur
DYEAR=2007
DGENRE=JPop
TTITLE0=春風
TTITLE1=散歩日和
TTITLE2=内緒箱の夢
TTITLE3=透明な輪
TTITLE4=神隠し
TTITLE5=ひとこと
TTITLE6=黄昏小道
TTITLE7=うわさ
TTITLE8=不器用な手
TTITLE9=咎人の夜明け
TTITLE10=ハッピーエンド
TTITLE11=君のかけら
EXTD=YEAR: 2007
EXTT0=曲:下村陽子 詞:茶太
EXTT1=曲:下村陽子 詞:茶太
EXTT2=曲:下村陽子 詞:茶太
EXTT3=曲:下村陽子 詞:茶太
EXTT4=曲:下村陽子 詞:茶太
EXTT5=曲:下村陽子 詞:茶太
EXTT6=曲:下村陽子 詞:茶太
EXTT7=曲:下村陽子 詞:茶太
EXTT8=曲:下村陽子 詞:茶太
EXTT9=曲:下村陽子 詞:茶太
EXTT10=曲:下村陽子 詞:茶太
EXTT11=曲:下村陽子 詞:茶太
PLAYORDER=
